<?xml version="1.0" encoding="UTF-8" standalone="no"?><!DOCTYPE svg PUBLIC "-//W3C//DTD SVG 1.1//EN"
        "http://www.w3.org/Graphics/SVG/1.1/DTD/svg11.dtd">
<svg width="100%" height="100%" viewBox="0 0 4267 4267" version="1.1" xmlns="http://www.w3.org/2000/svg"
     xml:space="preserve"
     style="fill-rule:evenodd;clip-rule:evenodd;stroke-linejoin:round;stroke-miterlimit:2;"><path d="M1006.97,1872.2c-25.707,-752.086 1006.73,-1202.57 1530.82,-344.804c433.641,-146.256 837.464,109.08 878.368,623.085c866.886,-99.383 969.073,1116.96 27.186,1052.75l-2685.02,-4.296c-731.471,6.593 -952.791,-1390.42 248.649,-1326.73Zm1484.33,370.82l0,-320.675c0,-193.652 -156.985,-350.637 -350.636,-350.637l-21.218,0c-192.278,0 -348.15,155.872 -348.15,348.15l-0,323.162l-21.116,-0c-48.697,-0 -88.174,39.477 -88.174,88.175l-0,593.645c-0,48.698 39.477,88.175 88.174,88.175l766.316,-0c48.698,-0 88.175,-39.477 88.175,-88.175l0,-593.645c0,-48.698 -39.477,-88.175 -88.175,-88.175l-25.196,-0Zm-583.533,-0l0,-310.4c0,-58.891 23.395,-115.37 65.037,-157.013c41.642,-41.642 98.122,-65.037 157.013,-65.037l0.012,0c59.674,0 116.904,23.706 159.099,65.901c42.196,42.196 65.901,99.426 65.901,159.099l0,307.45l-447.062,-0Zm177.353,380.746c-25.861,-16.128 -43.084,-44.833 -43.084,-77.528c-0,-50.392 40.911,-91.303 91.302,-91.303c50.392,-0 91.303,40.911 91.303,91.303c-0,32.695 -17.223,61.4 -43.084,77.528l43.084,150.853l-182.605,-0l43.084,-150.853Z" style="fill:url(#_Linear1);"/>
    <defs><linearGradient id="_Linear1" x1="0" y1="0" x2="1" y2="0" gradientUnits="userSpaceOnUse" gradientTransform="matrix(2914.58,1958.22,-1958.22,2914.58,885.265,1327.75)"><stop offset="0" style="stop-color:#b9d4ef;stop-opacity:1"/><stop
            offset="1" style="stop-color:#aff3dc;stop-opacity:1"/></linearGradient></defs></svg>